<?xml version="1.0" encoding="UTF-8" standalone="no"?>
<svg
   xmlns:dc="http://purl.org/dc/elements/1.1/"
   xmlns:cc="http://creativecommons.org/ns#"
   xmlns:rdf="http://www.w3.org/1999/02/22-rdf-syntax-ns#"
   xmlns:svg="http://www.w3.org/2000/svg"
   xmlns="http://www.w3.org/2000/svg"
   xmlns:sodipodi="http://sodipodi.sourceforge.net/DTD/sodipodi-0.dtd"
   xmlns:inkscape="http://www.inkscape.org/namespaces/inkscape"
   version="1.0"
   width="397mm"
   height="397mm"
   id="svg27"
   sodipodi:docname="flypizza2.emf">
  <metadata
     id="metadata31">
    <rdf:RDF>
      <cc:Work
         rdf:about="">
        <dc:format>image/svg+xml</dc:format>
        <dc:type
           rdf:resource="http://purl.org/dc/dcmitype/StillImage" />
      </cc:Work>
    </rdf:RDF>
  </metadata>
  <sodipodi:namedview
     pagecolor="#ffffff"
     bordercolor="#666666"
     borderopacity="1"
     objecttolerance="10"
     gridtolerance="10"
     guidetolerance="10"
     inkscape:pageopacity="0"
     inkscape:pageshadow="2"
     inkscape:window-width="640"
     inkscape:window-height="480"
     id="namedview29" />
  <defs
     id="defs3">
    <pattern
       id="EMFhbasepattern"
       patternUnits="userSpaceOnUse"
       width="6"
       height="6"
       x="0"
       y="0" />
  </defs>
  <path
     style="fill:#ffcc00;fill-rule:evenodd;fill-opacity:1;stroke:none;"
     d="  M 116.39914,652.71517   L 1384.9497,273.19798   L 1428.9494,300.71777   L 1310.6303,594.95559   L 1263.8306,718.71468   L 1206.0711,795.67411   L 1049.2722,1125.6717   z "
     id="path5" />
  <path
     style="fill:#d45400;fill-rule:evenodd;fill-opacity:1;stroke:#d45400;stroke-width:2.9599781px;stroke-linecap:butt;stroke-linejoin:miter;stroke-miterlimit:4;stroke-dasharray:none;stroke-opacity:1;"
     d="  M 741.03451,549.03593   C 769.1143,546.39595 789.03416,567.1158 789.03416,589.51563   C 789.03416,611.83547 767.51431,633.03531 741.03451,633.03531   C 714.47471,633.03531 693.03487,611.83547 693.03487,589.51563   C 693.03487,567.1158 714.55471,551.43592 741.03451,549.03593   z "
     id="path7" />
  <path
     style="fill:#c93837;fill-rule:evenodd;fill-opacity:1;stroke:none;"
     d="  M 1236.3108,534.47604   C 1263.0306,533.11605 1295.7504,534.39604 1307.9103,548.15594   C 1323.5102,565.91581 1283.9105,642.87524 1266.6306,688.3949   C 1260.3907,704.87478 1250.9507,714.71471 1244.6308,715.9147   C 1165.6714,717.19469 1101.1918,644.15523 1153.8315,575.67574   C 1172.7113,551.11592 1205.5911,542.95598 1236.3108,534.47604   z "
     id="path9" />
  <path
     style="fill:#d45400;fill-rule:evenodd;fill-opacity:1;stroke:none;"
     d="  M 1042.3923,674.715   C 1067.4321,674.715 1087.7519,692.55487 1087.7519,714.55471   C 1087.7519,736.55454 1057.1122,754.63441 1042.3923,754.47441   C 1014.8725,754.07441 996.95262,736.55454 996.95262,714.55471   C 996.95262,692.55487 1017.2725,674.715 1042.3923,674.715   z "
     id="path11" />
  <path
     style="fill:#d45400;fill-rule:evenodd;fill-opacity:1;stroke:none;"
     d="  M 508.55623,693.91486   C 526.2361,694.47486 541.83599,705.59477 548.23594,722.07465   C 554.55589,738.55453 550.47592,757.19439 537.75602,769.5143   C 525.11611,781.83421 506.23625,785.35418 489.99637,778.47423   C 473.67649,771.59428 463.11657,755.5944 463.11657,737.91453   C 463.51657,713.27472 483.83642,693.51486 508.55623,693.91486   z "
     id="path13" />
  <path
     style="fill:#d45400;fill-rule:evenodd;fill-opacity:1;stroke:none;"
     d="  M 1050.6322,424.47686   C 1075.672,424.47686 1095.9919,441.67673 1095.9919,462.95657   C 1095.9919,484.23641 1075.672,501.43629 1050.6322,501.43629   C 1025.5124,501.43629 1005.1926,484.23641 1005.1926,462.95657   C 1005.1926,441.67673 1025.5124,424.47686 1050.6322,424.47686   z "
     id="path15" />
  <path
     style="fill:#d45400;fill-rule:evenodd;fill-opacity:1;stroke:none;"
     d="  M 1219.831,396.95706   C 1241.1108,396.95706 1258.3907,416.63691 1258.3907,440.95673   C 1258.3907,465.27655 1241.1108,484.95641 1219.831,484.95641   C 1198.5511,484.95641 1181.3512,465.27655 1181.3512,440.95673   C 1181.3512,416.63691 1198.5511,396.95706 1219.831,396.95706   z "
     id="path17" />
  <path
     style="fill:#d45400;fill-rule:evenodd;fill-opacity:1;stroke:none;"
     d="  M 1038.2323,539.916   C 1040.3923,543.27598 797.1141,730.23459 606.23551,875.43352   C 606.23551,876.31351 600.95555,877.3535 600.71555,878.1535   C 724.55463,931.3531 853.91367,987.27269 977.67276,1040.3923   C 1122.7117,1081.272 1134.2316,1220.551 983.19272,1183.3512   C 884.15345,1141.1915 787.83416,1093.5919 689.91489,1062.0721   C 672.71502,1074.792 540.556,1216.711 520.95614,1219.111   C 507.19624,1220.791 484.55641,1204.9511 476.87647,1199.9111   C 456.71662,1109.1918 444.79671,1023.9124 424.63685,933.19309   C 317.35765,869.91356 204.47849,801.19407 97.19928,737.91453   C 75.359442,721.19466 61.679543,669.35504 80.639403,641.67525   C 109.67919,599.35556 166.07877,623.75538 212.71842,655.43514   L 419.1169,779.19423   C 445.8367,795.51411 478.15646,815.99396 504.39626,834.15382   L 507.59624,832.39383   C 672.07502,741.11451 875.75351,633.11531 1038.2323,539.916   z "
     id="path19" />
  <path
     style="fill:#c93837;fill-rule:evenodd;fill-opacity:1;stroke:none;"
     d="  M 914.39323,784.63419   C 1030.7124,759.43437 1129.7516,864.1536 1035.4323,941.43303   C 985.9127,981.99273 854.63367,970.07281 829.11386,902.87331   C 823.6739,887.91342 822.71391,871.67354 826.31388,856.15366   C 840.31378,803.75405 893.91338,789.67415 914.39323,784.63419   z  M 961.19288,963.43286   L 980.47274,960.63288  "
     id="path21" />
  <path
     style="fill:#fffeff;fill-rule:evenodd;fill-opacity:1;stroke:none;"
     d="  M 1365.6699,256.7181   C 1405.8296,246.79817 1451.6692,281.11792 1445.5093,314.47767   C 1436.3894,363.51731 1392.4697,436.07677 1373.9098,479.43645   C 1362.7899,505.59625 1340.9501,543.35598 1340.9501,548.23594   C 1340.7101,561.99584 1343.27,572.15576 1335.4301,594.95559   C 1324.7102,625.99536 1301.6704,675.275 1291.3504,702.1548   C 1278.9505,734.55456 1265.1906,729.0346 1250.0707,746.15447   L 1129.0316,1007.4325   C 1118.0717,1031.1924 1107.0318,1055.0322 1095.9919,1078.872   C 1093.6719,1097.6719 1121.5917,1108.5518 1084.632,1175.0313   C 1065.7521,1208.871 1020.5524,1218.791 996.95262,1210.871   C 899.03334,1178.0713 704.87478,1084.232 699.75482,1087.1119   C 686.63491,1094.6319 587.51565,1187.1912 559.43586,1224.6309   C 548.39594,1234.7109 515.75618,1248.7907 493.43634,1238.3908   C 457.11661,1227.5909 454.95663,1182.3112 443.83671,1125.6717   C 430.79681,1058.8722 419.43689,982.47272 408.07698,949.67297   C 361.35732,924.31315 310.3977,890.7134 270.558,867.11358   C 211.67843,832.47383 145.91892,793.11413 91.679321,759.91437   C 42.079688,729.5946 43.679676,657.91513 83.439382,619.67541   C 138.55897,566.6358 195.51855,615.43544 196.23855,608.71549   C 224.79833,601.27555 312.47769,575.19574 353.03738,561.91584   C 360.79733,559.43586 363.19731,547.03595 369.59726,542.71598   C 371.19725,541.59599 466.55654,504.39626 468.63653,504.15627   C 470.71651,503.99627 599.27556,488.07638 600.71555,487.67639   C 752.07443,440.95673 906.15329,396.95706 1057.5122,350.23741   C 1108.2318,334.23752 1315.1903,274.95796 1365.6699,256.7181   z  M 1368.3899,286.95787   L 1164.7914,347.43743   L 619.99541,515.19618   C 445.2767,557.51587 495.11633,540.156 372.31724,586.71565   C 312.71768,604.07553 247.59817,624.23538 187.99861,641.67525   C 186.55862,631.11533 115.59914,599.35556 88.879342,663.67508   C 64.79952,721.67465 118.39912,742.7145 146.71891,759.91437   L 435.59677,933.19309   C 439.43674,975.75277 459.3566,1054.7922 471.35651,1122.8717   C 483.75642,1192.8712 485.9164,1191.1112 496.15632,1208.1511   C 501.99628,1210.071 509.91622,1216.551 523.67612,1213.671   C 582.47569,1168.7113 635.19529,1098.2319 691.51488,1051.4322   C 769.5143,1083.512 847.43372,1118.3917 925.11315,1150.7115   C 951.67295,1161.6714 1003.8326,1194.5512 1032.7124,1180.6313   C 1097.0319,1149.5915 1066.5521,1088.7119 1063.0321,1084.392   C 1078.632,1049.5922 1096.9519,1011.9925 1112.5518,977.11276   C 1151.9915,891.91339 1188.6312,806.63402 1228.0709,721.43466   C 1246.1508,716.23469 1261.0307,713.91471 1274.8706,671.91502   C 1284.2305,643.59523 1321.1102,577.35572 1307.9103,548.15594   C 1335.2701,484.55641 1378.3098,403.99701 1404.2296,341.91747   C 1425.9094,299.59778 1401.6696,292.55783 1398.7096,289.67785   C 1391.6697,284.0779 1382.4698,284.63789 1368.3899,286.95787   z  M 493.43634,1238.3908   z "
     id="path23" />
  <path
     style="fill:#c93837;fill-rule:evenodd;fill-opacity:1;stroke:none;"
     d="  M 567.67579,517.91616   L 586.95565,520.71614   C 626.87536,550.47592 601.19555,612.39546 570.47577,633.43531   C 503.75627,679.11497 394.39708,649.75519 375.11722,605.91551   C 373.99723,576.31573 379.19719,581.27569 386.07714,570.15578   L 476.87647,534.47604   z "
     id="path25" />
</svg>
